<svg xmlns="http://www.w3.org/2000/svg" version="1.1" xmlns:xlink="http://www.w3.org/1999/xlink" xmlns:svgjs="http://svgjs.dev/svgjs" width="1000" height="141" viewBox="0 0 1000 141"><g transform="matrix(1,0,0,1,-0.6060424126951034,-0.46135359615892924)"><svg viewBox="0 0 396 56" data-background-color="#000000" preserveAspectRatio="xMidYMid meet" height="141" width="1000" xmlns="http://www.w3.org/2000/svg" xmlns:xlink="http://www.w3.org/1999/xlink"><g id="tight-bounds" transform="matrix(1,0,0,1,0.2399927954272698,0.18323263393546085)"><svg viewBox="0 0 395.52 55.633532468562414" height="55.633532468562414" width="395.52"><g><svg viewBox="0 0 510.9094115226675 71.8641164402317" height="55.633532468562414" width="395.52"><g><rect width="4.689421262191216" height="62.40010110584517" x="98.42401836992339" y="4.732007667193265" fill="#ffffff" opacity="1" stroke-width="0" stroke="transparent" fill-opacity="1" class="rect-o-0" data-fill-palette-color="primary" rx="1%" id="o-0" data-palette-color="#ffffff"></rect></g><g transform="matrix(1,0,0,1,115.38941152266753,9.93201609268036)"><svg viewBox="0 0 395.52 52.00008425487098" height="52.00008425487098" width="395.52"><g><svg viewBox="0 0 395.52 52.00008425487098" height="52.00008425487098" width="395.52"><g><svg viewBox="0 0 395.52 52.00008425487098" height="52.00008425487098" width="395.52"><g transform="matrix(1,0,0,1,0,0)"><svg width="395.52" viewBox="1.850000023841858 -37 284.8299865722656 37.45000076293945" height="52.00008425487098" data-palette-color="#ffffff"><path d="M35.75-24.75L28.9-24.75Q27.55-27.35 25.15-28.68 22.75-30 19.6-30L19.6-30Q16.15-30 13.45-28.45 10.75-26.9 9.22-24.05 7.7-21.2 7.7-17.45L7.7-17.45Q7.7-13.7 9.22-10.83 10.75-7.95 13.45-6.4 16.15-4.85 19.6-4.85L19.6-4.85Q24.25-4.85 27.15-7.45 30.05-10.05 30.7-14.5L30.7-14.5 17.65-14.5 17.65-19.05 36.8-19.05 36.8-14.6Q36.25-10.55 33.93-7.15 31.6-3.75 27.88-1.73 24.15 0.3 19.6 0.3L19.6 0.3Q14.7 0.3 10.65-1.98 6.6-4.25 4.23-8.3 1.85-12.35 1.85-17.45L1.85-17.45Q1.85-22.55 4.23-26.6 6.6-30.65 10.68-32.93 14.75-35.2 19.6-35.2L19.6-35.2Q25.15-35.2 29.48-32.48 33.8-29.75 35.75-24.75L35.75-24.75ZM40.5-13.9Q40.5-18.05 42.22-21.25 43.95-24.45 46.92-26.23 49.9-28 53.5-28L53.5-28Q56.75-28 59.17-26.73 61.6-25.45 63.05-23.55L63.05-23.55 63.05-27.55 68.8-27.55 68.8 0 63.05 0 63.05-4.1Q61.6-2.15 59.1-0.85 56.6 0.45 53.4 0.45L53.4 0.45Q49.85 0.45 46.9-1.38 43.95-3.2 42.22-6.48 40.5-9.75 40.5-13.9L40.5-13.9ZM63.05-13.8Q63.05-16.65 61.87-18.75 60.7-20.85 58.8-21.95 56.9-23.05 54.7-23.05L54.7-23.05Q52.5-23.05 50.6-21.98 48.7-20.9 47.52-18.82 46.35-16.75 46.35-13.9L46.35-13.9Q46.35-11.05 47.52-8.9 48.7-6.75 50.62-5.63 52.55-4.5 54.7-4.5L54.7-4.5Q56.9-4.5 58.8-5.6 60.7-6.7 61.87-8.83 63.05-10.95 63.05-13.8L63.05-13.8ZM109.65-28Q112.9-28 115.47-26.65 118.05-25.3 119.52-22.65 121-20 121-16.25L121-16.25 121 0 115.35 0 115.35-15.4Q115.35-19.1 113.5-21.08 111.65-23.05 108.45-23.05L108.45-23.05Q105.25-23.05 103.37-21.08 101.5-19.1 101.5-15.4L101.5-15.4 101.5 0 95.85 0 95.85-15.4Q95.85-19.1 94-21.08 92.15-23.05 88.95-23.05L88.95-23.05Q85.75-23.05 83.87-21.08 82-19.1 82-15.4L82-15.4 82 0 76.3 0 76.3-27.55 82-27.55 82-24.4Q83.4-26.1 85.55-27.05 87.7-28 90.15-28L90.15-28Q93.45-28 96.05-26.6 98.65-25.2 100.05-22.55L100.05-22.55Q101.3-25.05 103.95-26.53 106.6-28 109.65-28L109.65-28ZM153.49-14.45Q153.49-12.9 153.29-11.65L153.29-11.65 132.24-11.65Q132.49-8.35 134.69-6.35 136.89-4.35 140.09-4.35L140.09-4.35Q144.69-4.35 146.59-8.2L146.59-8.2 152.74-8.2Q151.49-4.4 148.22-1.98 144.94 0.45 140.09 0.45L140.09 0.45Q136.14 0.45 133.02-1.33 129.89-3.1 128.12-6.33 126.34-9.55 126.34-13.8L126.34-13.8Q126.34-18.05 128.07-21.28 129.79-24.5 132.92-26.25 136.04-28 140.09-28L140.09-28Q143.99-28 147.04-26.3 150.09-24.6 151.79-21.53 153.49-18.45 153.49-14.45L153.49-14.45ZM132.29-16.25L147.54-16.25Q147.49-19.4 145.29-21.3 143.09-23.2 139.84-23.2L139.84-23.2Q136.89-23.2 134.79-21.33 132.69-19.45 132.29-16.25L132.29-16.25ZM183.04-34.75L189.04-34.75 175.99 0 169.39 0 156.29-34.75 162.39-34.75 172.69-5.85 183.04-34.75ZM191.89-13.9Q191.89-18.05 193.61-21.25 195.34-24.45 198.31-26.23 201.29-28 204.89-28L204.89-28Q208.14-28 210.56-26.73 212.99-25.45 214.44-23.55L214.44-23.55 214.44-27.55 220.19-27.55 220.19 0 214.44 0 214.44-4.1Q212.99-2.15 210.49-0.85 207.99 0.45 204.79 0.45L204.79 0.45Q201.24 0.45 198.29-1.38 195.34-3.2 193.61-6.48 191.89-9.75 191.89-13.9L191.89-13.9ZM214.44-13.8Q214.44-16.65 213.26-18.75 212.09-20.85 210.19-21.95 208.29-23.05 206.09-23.05L206.09-23.05Q203.89-23.05 201.99-21.98 200.09-20.9 198.91-18.82 197.74-16.75 197.74-13.9L197.74-13.9Q197.74-11.05 198.91-8.9 200.09-6.75 202.01-5.63 203.94-4.5 206.09-4.5L206.09-4.5Q208.29-4.5 210.19-5.6 212.09-6.7 213.26-8.83 214.44-10.95 214.44-13.8L214.44-13.8ZM246.94-27.55L252.64-27.55 252.64 0 246.94 0 246.94-3.25Q245.59-1.55 243.41-0.58 241.24 0.4 238.79 0.4L238.79 0.4Q235.54 0.4 232.96-0.95 230.39-2.3 228.91-4.95 227.44-7.6 227.44-11.35L227.44-11.35 227.44-27.55 233.09-27.55 233.09-12.2Q233.09-8.5 234.94-6.53 236.79-4.55 239.99-4.55L239.99-4.55Q243.19-4.55 245.06-6.53 246.94-8.5 246.94-12.2L246.94-12.2 246.94-27.55ZM260.13-37L265.83-37 265.83 0 260.13 0 260.13-37ZM286.68-22.9L279.98-22.9 279.98-7.65Q279.98-6.1 280.71-5.43 281.43-4.75 283.18-4.75L283.18-4.75 286.68-4.75 286.68 0 282.18 0Q278.33 0 276.28-1.8 274.23-3.6 274.23-7.65L274.23-7.65 274.23-22.9 270.98-22.9 270.98-27.55 274.23-27.55 274.23-34.4 279.98-34.4 279.98-27.55 286.68-27.55 286.68-22.9Z" opacity="1" transform="matrix(1,0,0,1,0,0)" fill="#ffffff" class="undefined-text-0" data-fill-palette-color="primary" id="text-0"></path></svg></g></svg></g></svg></g></svg></g><g><svg viewBox="0 0 86.14804647937046 71.8641164402317" height="71.8641164402317" width="86.14804647937046"><g><svg xmlns="http://www.w3.org/2000/svg" xmlns:xlink="http://www.w3.org/1999/xlink" version="1.1" x="0" y="0" viewBox="1.496999979019165 8 97.10699462890625 81.00599670410156" enable-background="new 0 0 100 100" xml:space="preserve" height="71.8641164402317" width="86.14804647937046" class="icon-icon-0" data-fill-palette-color="accent" id="icon-0"><g fill="#4330bf" data-fill-palette-color="accent"><polygon fill="#4330bf" points="9.598,89.006 98.604,89.006 98.604,16.101 58.201,16.101 58.201,24.201 90.503,24.201    90.503,80.905 17.698,80.905 17.698,56.604 9.598,56.604  " data-fill-palette-color="accent"></polygon><path fill="#4330bf" d="M1.497 48.503h8.101v-8.101h8.101v8.101h8.101v-8.101h8.101v8.101H42v-8.101h8.101v8.101h8.101V32.302h-8.101V16.101H42V8h-8.101v8.101h-8.101V8h-8.101v8.101H9.598v16.201H1.497V48.503zM17.698 32.302v-8.101h8.101v8.101H17.698zM33.899 32.302v-8.101H42v8.101H33.899z" data-fill-palette-color="accent"></path></g></svg></g></svg></g></svg></g><defs></defs></svg><rect width="395.52" height="55.633532468562414" fill="none" stroke="none" visibility="hidden"></rect></g></svg></g></svg>